<svg width="100" height="100" viewBox="0 0 100 100" xmlns="http://www.w3.org/2000/svg">
  <defs>
    <linearGradient id="brainGradient" x1="0%" y1="0%" x2="100%" y2="100%">
      <stop offset="0%" style="stop-color:#8A2BE2;stop-opacity:1" />
      <stop offset="100%" style="stop-color:#4682B4;stop-opacity:1" />
    </linearGradient>
  </defs>
  <path d="M50 10 C 20 10, 20 40, 50 40 S 80 10, 50 10" fill="url(#brainGradient)" />
  <path d="M50 20 C 30 20, 30 50, 50 50 S 70 20, 50 20" fill="url(#brainGradient)" />
  <path d="M50 30 C 40 30, 40 60, 50 60 S 60 30, 50 30" fill="url(#brainGradient)" />
  <path d="M50 40 C 45 40, 45 70, 50 70 S 55 40, 50 40" fill="url(#brainGradient)" />
  <circle cx="50" cy="50" r="5" fill="#fff" />
  <circle cx="35" cy="40" r="3" fill="#fff" />
  <circle cx="65" cy="40" r="3" fill="#fff" />
  <circle cx="40" cy="60" r="4" fill="#fff" />
  <circle cx="60" cy="60" r="4" fill="#fff" />
  <circle cx="50" cy="75" r="3" fill="#fff" />
</svg>